<svg xmlns="http://www.w3.org/2000/svg" xmlns:xlink="http://www.w3.org/1999/xlink" viewBox="0 0 166.32 150.78"><defs><linearGradient id="linear-gradient" x1="6.94" y1="75.39" x2="161.37" y2="75.39" gradientUnits="userSpaceOnUse"><stop offset="0" stop-color="#b07515"/><stop offset="0.09" stop-color="#e1ba60"/><stop offset="0.14" stop-color="#f5d77f"/><stop offset="0.26" stop-color="#ffffd7"/><stop offset="0.36" stop-color="#f5d77f"/><stop offset="0.49" stop-color="#b07515"/><stop offset="0.57" stop-color="#e1ba60"/><stop offset="0.61" stop-color="#f5d77f"/><stop offset="0.74" stop-color="#ffffd7"/><stop offset="0.84" stop-color="#f5d77f"/><stop offset="1" stop-color="#b07515"/></linearGradient><linearGradient id="linear-gradient-2" x1="29.37" y1="21.6" x2="137.24" y2="129.47" xlink:href="#linear-gradient"/><linearGradient id="linear-gradient-3" x1="33.04" y1="75.39" x2="130.1" y2="75.39" xlink:href="#linear-gradient"/><linearGradient id="linear-gradient-4" x1="50.38" y1="42.61" x2="117.37" y2="109.59" gradientUnits="userSpaceOnUse"><stop offset="0" stop-color="#0f1115"/><stop offset="0.14" stop-color="#1c2228"/><stop offset="0.26" stop-color="#232a32"/><stop offset="0.36" stop-color="#1c2228"/><stop offset="0.49" stop-color="#0f1115"/><stop offset="0.61" stop-color="#1c2228"/><stop offset="0.74" stop-color="#232a32"/><stop offset="0.84" stop-color="#1c2228"/><stop offset="1" stop-color="#0f1115"/></linearGradient><linearGradient id="linear-gradient-5" x1="53.64" y1="45.87" x2="110.01" y2="102.24" gradientUnits="userSpaceOnUse"><stop offset="0" stop-color="#161a1f"/><stop offset="0.14" stop-color="#2a323b"/><stop offset="0.26" stop-color="#343f4a"/><stop offset="0.36" stop-color="#2a323b"/><stop offset="0.49" stop-color="#161a1f"/><stop offset="0.61" stop-color="#2a323b"/><stop offset="0.74" stop-color="#343f4a"/><stop offset="0.84" stop-color="#2a323b"/><stop offset="1" stop-color="#161a1f"/></linearGradient><linearGradient id="linear-gradient-7" x1="29.76" y1="21.99" x2="131.8" y2="124.03" xlink:href="#linear-gradient-4"/><linearGradient id="linear-gradient-8" x1="35.66" y1="27.9" x2="126.42" y2="118.65" xlink:href="#linear-gradient-5"/><radialGradient id="radial-gradient" cx="113.92" cy="75.27" r="99.17" gradientUnits="userSpaceOnUse"><stop offset="0" stop-color="#e8e8e8"/><stop offset="0.05" stop-color="#a6a6a6"/><stop offset="0.14" stop-color="#606060"/><stop offset="0.21" stop-color="#4c4c4c"/><stop offset="0.33" stop-color="#303030"/><stop offset="0.45" stop-color="#1b1b1b"/><stop offset="0.59" stop-color="#0c0c0c"/><stop offset="0.76" stop-color="#030303"/><stop offset="1"/></radialGradient><linearGradient id="linear-gradient-9" x1="28.13" y1="20.36" x2="143.97" y2="136.2" xlink:href="#linear-gradient"/><linearGradient id="linear-gradient-10" x1="27.14" y1="22.48" x2="147.04" y2="142.37" xlink:href="#linear-gradient"/><linearGradient id="linear-gradient-11" x1="33.75" y1="15.88" x2="153.65" y2="135.77" xlink:href="#linear-gradient"/><linearGradient id="linear-gradient-12" x1="39.8" y1="9.83" x2="159.68" y2="129.71" xlink:href="#linear-gradient"/><linearGradient id="linear-gradient-13" x1="46.89" y1="2.74" x2="166.77" y2="122.63" xlink:href="#linear-gradient"/><linearGradient id="linear-gradient-14" x1="56.52" y1="-6.89" x2="176.4" y2="112.99" xlink:href="#linear-gradient"/><linearGradient id="linear-gradient-15" x1="63.04" y1="-13.41" x2="182.92" y2="106.48" xlink:href="#linear-gradient"/><linearGradient id="linear-gradient-16" x1="65.82" y1="-16.19" x2="185.7" y2="103.7" xlink:href="#linear-gradient"/><linearGradient id="linear-gradient-17" x1="69.03" y1="-19.41" x2="188.92" y2="100.49" xlink:href="#linear-gradient"/><linearGradient id="linear-gradient-18" x1="70.67" y1="-21.03" x2="190.55" y2="98.84" xlink:href="#linear-gradient"/><linearGradient id="linear-gradient-19" x1="71.54" y1="-21.9" x2="191.41" y2="97.97" xlink:href="#linear-gradient"/><linearGradient id="linear-gradient-20" x1="71.39" y1="-21.76" x2="191.27" y2="98.13" xlink:href="#linear-gradient"/><linearGradient id="linear-gradient-21" x1="-14.69" y1="64.3" x2="105.22" y2="184.21" xlink:href="#linear-gradient"/><linearGradient id="linear-gradient-22" x1="-14.14" y1="63.76" x2="105.75" y2="183.65" xlink:href="#linear-gradient"/><linearGradient id="linear-gradient-23" x1="-12.86" y1="62.49" x2="107.02" y2="182.37" xlink:href="#linear-gradient"/><linearGradient id="linear-gradient-24" x1="-10.28" y1="59.9" x2="109.61" y2="179.79" xlink:href="#linear-gradient"/><linearGradient id="linear-gradient-25" x1="-4.73" y1="54.36" x2="115.16" y2="174.24" xlink:href="#linear-gradient"/><linearGradient id="linear-gradient-26" x1="2.11" y1="47.51" x2="122" y2="167.4" xlink:href="#linear-gradient"/><linearGradient id="linear-gradient-27" x1="5.99" y1="43.65" x2="125.87" y2="163.53" xlink:href="#linear-gradient"/><linearGradient id="linear-gradient-28" x1="12.7" y1="36.92" x2="132.59" y2="156.81" xlink:href="#linear-gradient"/><linearGradient id="linear-gradient-29" x1="18.26" y1="31.35" x2="138.16" y2="151.25" xlink:href="#linear-gradient"/><linearGradient id="linear-gradient-30" x1="24.21" y1="25.42" x2="144.09" y2="145.3" xlink:href="#linear-gradient"/><linearGradient id="linear-gradient-31" x1="30.69" y1="18.94" x2="150.58" y2="138.83" xlink:href="#linear-gradient"/><linearGradient id="linear-gradient-32" x1="26.63" y1="21.97" x2="146.5" y2="141.84" xlink:href="#linear-gradient-5"/><linearGradient id="linear-gradient-33" x1="33.23" y1="15.36" x2="153.12" y2="135.25" xlink:href="#linear-gradient-5"/><linearGradient id="linear-gradient-34" x1="39.28" y1="9.31" x2="159.16" y2="129.19" xlink:href="#linear-gradient-5"/><linearGradient id="linear-gradient-35" x1="46.37" y1="2.22" x2="166.26" y2="122.12" xlink:href="#linear-gradient-5"/><linearGradient id="linear-gradient-36" x1="56" y1="-7.41" x2="175.88" y2="112.47" xlink:href="#linear-gradient-5"/><linearGradient id="linear-gradient-37" x1="62.52" y1="-13.93" x2="182.4" y2="105.95" xlink:href="#linear-gradient-5"/><linearGradient id="linear-gradient-38" x1="65.3" y1="-16.71" x2="185.18" y2="103.18" xlink:href="#linear-gradient-5"/><linearGradient id="linear-gradient-39" x1="68.51" y1="-19.93" x2="188.41" y2="99.97" xlink:href="#linear-gradient-5"/><linearGradient id="linear-gradient-40" x1="70.14" y1="-21.56" x2="190.04" y2="98.33" xlink:href="#linear-gradient-5"/><linearGradient id="linear-gradient-41" x1="71.02" y1="-22.42" x2="190.9" y2="97.45" xlink:href="#linear-gradient-5"/><linearGradient id="linear-gradient-42" x1="70.87" y1="-22.28" x2="190.75" y2="97.61" xlink:href="#linear-gradient-5"/><linearGradient id="linear-gradient-43" x1="-15.21" y1="63.78" x2="104.69" y2="183.69" xlink:href="#linear-gradient-5"/><linearGradient id="linear-gradient-44" x1="-14.66" y1="63.25" x2="105.23" y2="183.13" xlink:href="#linear-gradient-5"/><linearGradient id="linear-gradient-45" x1="-13.37" y1="61.98" x2="106.5" y2="181.85" xlink:href="#linear-gradient-5"/><linearGradient id="linear-gradient-46" x1="-10.8" y1="59.38" x2="109.09" y2="179.27" xlink:href="#linear-gradient-5"/><linearGradient id="linear-gradient-47" x1="-5.25" y1="53.84" x2="114.64" y2="173.72" xlink:href="#linear-gradient-5"/><linearGradient id="linear-gradient-48" x1="1.59" y1="46.99" x2="121.48" y2="166.88" xlink:href="#linear-gradient-5"/><linearGradient id="linear-gradient-49" x1="5.47" y1="43.13" x2="125.35" y2="163.01" xlink:href="#linear-gradient-5"/><linearGradient id="linear-gradient-50" x1="12.18" y1="36.39" x2="132.08" y2="156.29" xlink:href="#linear-gradient-5"/><linearGradient id="linear-gradient-51" x1="17.73" y1="30.83" x2="137.64" y2="150.73" xlink:href="#linear-gradient-5"/><linearGradient id="linear-gradient-52" x1="23.69" y1="24.9" x2="143.57" y2="144.78" xlink:href="#linear-gradient-5"/><linearGradient id="linear-gradient-53" x1="30.17" y1="18.42" x2="150.06" y2="138.31" xlink:href="#linear-gradient-5"/><linearGradient id="linear-gradient-54" x1="13.81" y1="59.1" x2="100.85" y2="146.13" xlink:href="#linear-gradient"/><linearGradient id="linear-gradient-55" x1="21.33" y1="51.59" x2="108.36" y2="138.62" xlink:href="#linear-gradient"/><linearGradient id="linear-gradient-56" x1="29.69" y1="43.23" x2="116.72" y2="130.26" xlink:href="#linear-gradient"/><linearGradient id="linear-gradient-57" x1="37.8" y1="35.11" x2="124.84" y2="122.15" xlink:href="#linear-gradient"/><linearGradient id="linear-gradient-58" x1="46.64" y1="26.27" x2="133.68" y2="113.31" xlink:href="#linear-gradient"/><linearGradient id="linear-gradient-59" x1="54.92" y1="17.99" x2="141.96" y2="105.02" xlink:href="#linear-gradient"/><linearGradient id="linear-gradient-60" x1="62.91" y1="10.01" x2="149.94" y2="97.04" xlink:href="#linear-gradient"/><linearGradient id="linear-gradient-61" x1="47.62" y1="25.29" x2="134.65" y2="112.33" xlink:href="#linear-gradient"/><linearGradient id="linear-gradient-62" x1="54.2" y1="18.71" x2="141.24" y2="105.75" xlink:href="#linear-gradient"/><linearGradient id="linear-gradient-63" x1="60.98" y1="11.94" x2="148.01" y2="98.97" xlink:href="#linear-gradient"/><linearGradient id="linear-gradient-64" x1="18.85" y1="54.07" x2="105.89" y2="141.1" xlink:href="#linear-gradient"/><linearGradient id="linear-gradient-65" x1="25.43" y1="47.48" x2="112.46" y2="134.51" xlink:href="#linear-gradient"/><linearGradient id="linear-gradient-66" x1="32.21" y1="40.71" x2="119.24" y2="127.75" xlink:href="#linear-gradient"/><linearGradient id="linear-gradient-67" x1="-83.64" y1="-88.84" x2="160.49" y2="155.3" xlink:href="#linear-gradient"/><radialGradient id="radial-gradient-2" cx="-472.97" cy="-2315.74" r="21.78" gradientTransform="matrix(1.69, 0.01, 0, 0.49, 848.56, 1207.82)" gradientUnits="userSpaceOnUse"><stop offset="0" stop-color="#ffc94c"/><stop offset="0.14" stop-color="#a2621e"/><stop offset="0.16" stop-color="#965b1c"/><stop offset="0.25" stop-color="#6e4314"/><stop offset="0.34" stop-color="#4c2e0e"/><stop offset="0.44" stop-color="#301d09"/><stop offset="0.55" stop-color="#1b1005"/><stop offset="0.66" stop-color="#0c0702"/><stop offset="0.8" stop-color="#030201"/><stop offset="1"/></radialGradient></defs><title>Layer 1quality</title><g style="isolation:isolate"><g id="Layer_2" data-name="Layer 2"><g id="Layer_1-2" data-name="Layer 1"><path d="M83.16,150.78a75.39,75.39,0,1,1,75.39-75.39A75.39,75.39,0,0,1,83.16,150.78Z" style="fill:url(#linear-gradient)"/><path d="M83.16,149.67a74.29,74.29,0,1,1,74.29-74.28A74.28,74.28,0,0,1,83.16,149.67Z" style="fill:url(#linear-gradient-2)"/><path d="M83.16,124.44a49.05,49.05,0,1,1,49.05-49A49,49,0,0,1,83.16,124.44Z" style="fill:url(#linear-gradient-3)"/><path d="M83.16,123.16a47.78,47.78,0,1,1,47.78-47.77A47.77,47.77,0,0,1,83.16,123.16Z" style="fill:url(#linear-gradient-4)"/><path d="M83.16,115.45a40.07,40.07,0,1,1,40.06-40.06A40.06,40.06,0,0,1,83.16,115.45Z" style="fill:url(#linear-gradient-5)"/><path d="M83.16,115.45a40.07,40.07,0,1,1,40.06-40.06A40.06,40.06,0,0,1,83.16,115.45Z" style="fill:url(#linear-gradient-5)"/><rect x="0.59" y="57.67" width="165.13" height="35.44" style="fill:url(#linear-gradient-7)"/><rect x="7.41" y="61.93" width="151.49" height="26.91" style="fill:url(#linear-gradient-8)"/><path d="M104.58,57.67H.59V93.11H68.35A137.68,137.68,0,0,1,104.58,57.67Z" style="opacity:0.6000000000000001;mix-blend-mode:screen;fill:url(#radial-gradient)"/><path d="M166.32,93.7H0V57.08H166.32ZM1.19,92.51H165.13V58.26H1.19Z" style="fill:url(#linear-gradient-9)"/><g style="mix-blend-mode:screen"><path d="M37.17,35.78c-1.56-1.42-1.84-1.67-2.18-1.94s-.59-.35-1-.09a2.58,2.58,0,0,0-.34.32.11.11,0,0,1-.14,0c-.06-.06,0-.13.07-.23.41-.45,1-1.06,1.05-1.11.22-.24.55-.66,1-1.13C37.12,30,38.45,30.53,39,31a3.42,3.42,0,0,1,1,2.58,3.16,3.16,0,0,1,3.68.18c1.08,1,1.43,2.82-.12,4.54l-.68.69c-.28.27-.55.55-.58.59s-.18.19-.36.41-.37.45-.5.6-.17.14-.23.08,0-.07,0-.13a2,2,0,0,0,.23-.34c.15-.23,0-.48-.28-.79s-1.17-1.14-2.14-2Zm.95-.61a.13.13,0,0,0,.18,0,7.9,7.9,0,0,0,.59-.58c.51-.56.61-.72.56-1.15a2,2,0,0,0-.69-1.28c-.83-.75-2.06-1.19-2.95-.2a2.92,2.92,0,0,0-.38.52c-.06.11-.06.17,0,.22Zm1.07,1,2.17,2c.52.41.66.54,1.1.36a3.13,3.13,0,0,0,.94-.75,1.8,1.8,0,0,0-.14-2.7,3.26,3.26,0,0,0-2.89-.84,2.28,2.28,0,0,0-1,.57c-.13.11-.59.62-.72.77s0,.07,0,.12Z" style="fill:url(#linear-gradient-10)"/><path d="M44.23,28.67c-1.33-1.64-1.57-1.93-1.86-2.25s-.53-.44-.93-.24a3.3,3.3,0,0,0-.39.26s-.1,0-.13,0,0-.13.1-.22.52-.43.76-.6l.45-.33,2.4-2a4.82,4.82,0,0,0,.41-.42c0-.06.05-.13.1-.18s.08,0,.12.07.11.24.32.56c.07.11.42.59.5.73s.07.15,0,.18-.12,0-.19-.07a1.57,1.57,0,0,0-.37-.33c-.21-.1-.42-.15-1,.25-.2.12-1.35,1-1.47,1.14s0,.08,0,.15l2.35,2.9c.06.07.1.1.15.06S47,27.22,47.21,27s.37-.37.38-.55,0-.23,0-.26.08,0,.13,0,.14.28.39.66c.15.22.44.63.5.7s.16.2.09.26a.1.1,0,0,1-.15,0,1.61,1.61,0,0,0-.32-.32c-.17-.11-.4-.21-.85.08s-1.36,1-1.54,1.16a.1.1,0,0,0,0,.14l.75.92c.29.36,1.27,1.59,1.46,1.8.62.7.89.71,1.92-.13a3.83,3.83,0,0,0,.91-.93c.18-.34.13-.65-.14-1.14-.07-.13-.09-.19,0-.23s.13,0,.19.1.56.87.69,1.13.06.4-.35.73c-.79.64-1.38,1.09-1.8,1.41s-.69.51-.84.63l-.42.36c-.21.17-.43.38-.59.51s-.18.11-.23.05,0-.08,0-.13a2.68,2.68,0,0,0,.28-.3c.18-.21,0-.48-.16-.82s-1-1.31-1.8-2.32Z" style="fill:url(#linear-gradient-11)"/><path d="M54,29c-.21,0-.25,0-.43-.33-.35-.58-.58-1.08-.68-1.27s-.07-.21,0-.24.1,0,.16.08a2.28,2.28,0,0,0,.29.41,1.83,1.83,0,0,0,2.42.17,1.81,1.81,0,0,0,.75-2.54c-.47-.8-1.09-1.07-2.58-1.3l-.78-.12c-1.83-.29-2.54-.84-3-1.63-.74-1.25-.31-2.65,1.16-3.53a5.24,5.24,0,0,1,1.16-.52,2.16,2.16,0,0,0,.44-.18c.09-.06.13-.05.16,0s.22.47.69,1.26c.11.19.13.28.07.32s-.11,0-.18-.1a2.53,2.53,0,0,0-.49-.49c-.15-.09-.75-.39-1.82.24a1.54,1.54,0,0,0-.64,2.2c.39.66.94.9,2.58,1.12l.48.06c2,.27,2.76.8,3.32,1.73a2.83,2.83,0,0,1,.15,2.52,3.55,3.55,0,0,1-1.47,1.53A4,4,0,0,1,54,29Z" style="fill:url(#linear-gradient-12)"/><path d="M62.81,20.34c.47,1.21.87,2.2,1.14,2.7s.37.6.77.5l.58-.17c.08,0,.12,0,.13,0s0,.13-.16.18c-.69.28-1.5.55-1.56.58s-.84.38-1.22.52c-.13.06-.21.06-.24,0s0-.08.07-.11a2.08,2.08,0,0,0,.36-.2c.23-.15.18-.45.09-.84-.15-.55-.54-1.54-1-2.75l-2.11-5.31-1.85.76c-.77.32-1,.53-1.12.91a2.47,2.47,0,0,0-.06.47c0,.12,0,.16-.08.18s-.07,0-.1-.09-.23-1.3-.25-1.41,0-.27,0-.29a2.89,2.89,0,0,0,.62-.07c.38-.11.86-.27,1-.33l4.72-1.87a4.91,4.91,0,0,0,.86-.42c.18-.1.28-.18.33-.2s.09.05.12.12c.15.38.46,1.26.51,1.4s0,.18,0,.2-.1,0-.18-.18l-.07-.13c-.19-.36-.61-.53-1.82-.08L60.7,15Z" style="fill:url(#linear-gradient-13)"/><path d="M80.53,20.14a5.31,5.31,0,0,1-2.07.66A5.07,5.07,0,0,1,72.67,16a5.23,5.23,0,0,1,4.78-5.79c3-.31,5.48,1.39,5.79,4.51a5.58,5.58,0,0,1-1.93,4.77l2.91,1.15a12.36,12.36,0,0,0,5.82,1,7.65,7.65,0,0,0,2.6-.79l.19-.08a.1.1,0,0,1,.09.08c0,.05,0,.09-.1.14a10.26,10.26,0,0,1-4.17,1.36,11.72,11.72,0,0,1-5.73-1.25Zm-1.8.12c1.22-.12,3.65-1.07,3.26-5-.33-3.23-2.47-4.77-4.59-4.56s-3.79,1.88-3.49,4.83C74.22,18.67,76.31,20.51,78.73,20.26Z" style="fill:url(#linear-gradient-14)"/><path d="M86.91,14c.24-2.09.28-2.47.3-2.9s0-.69-.48-.83a3.41,3.41,0,0,0-.46-.1.09.09,0,0,1-.1-.09c0-.08.08-.1.23-.09.61.07,1.42.21,1.54.22s.93.07,1.34.12c.14,0,.21,0,.2.13a.09.09,0,0,1-.12.07H89c-.37,0-.5.24-.58.71s-.12.8-.36,2.9L87.86,16c-.22,1.93.11,2.81.63,3.43a2.64,2.64,0,0,0,1.94,1,2.82,2.82,0,0,0,2.22-.72,5.25,5.25,0,0,0,1.15-3.2L94,14.8c.24-2.1.28-2.47.3-2.91s0-.68-.48-.83a2.34,2.34,0,0,0-.46-.09s-.1,0-.1-.09.08-.1.23-.09c.61.07,1.34.19,1.42.2s.73,0,1.13.1c.15,0,.21.05.21.13a.1.1,0,0,1-.12.07h-.34c-.37,0-.5.24-.59.71s-.12.8-.36,2.89l-.16,1.44c-.17,1.45-.51,3.05-1.7,3.88a4,4,0,0,1-2.88.67,4.13,4.13,0,0,1-2.66-1.27c-.58-.71-1-1.71-.76-3.67Z" style="fill:url(#linear-gradient-15)"/><path d="M102.45,13.18c.29-.38.36-.44.44-.41s.11.1.14.55.43,6.51.61,8.72c.11,1.29.43,1.62.67,1.78a1.65,1.65,0,0,0,.5.23c.07,0,.12.06.1.12s-.15.07-.29,0-1.14-.35-2-.65c-.24-.09-.39-.14-.36-.22s.06-.06.12-.06.2-.09.18-.32l-.22-3.55a.13.13,0,0,0-.09-.12l-2.78-.85a.15.15,0,0,0-.16.06l-1.48,2.05a2.8,2.8,0,0,0-.45.81c-.08.26.16.46.38.53l.13,0c.09,0,.12.06.1.11s-.11.08-.23,0l-1-.35c-.14-.05-.87-.23-1.48-.41q-.24-.08-.21-.18c0-.05.08-.06.14,0l.38.09c.62.1,1-.31,1.46-.89Zm-.25,5.59c.07,0,.08,0,.08-.08l-.15-3.87c0-.21-.07-.23-.19-.06L99.72,17.9c0,.06,0,.09,0,.11Z" style="fill:url(#linear-gradient-16)"/><path d="M109.27,22.23c-.88,1.79-1.21,2.59-1.1,2.92s.37.53,1.32,1c.65.32,1.19.57,1.65.36a2,2,0,0,0,.67-.57c.06-.1.12-.14.19-.11s0,.09,0,.22a7.88,7.88,0,0,1-.77,1.12c-.23.24-.29.27-.93,0-.87-.43-1.5-.77-2-1s-.87-.47-1.22-.64l-.5-.24-.71-.31c-.13-.07-.18-.12-.14-.19s.06-.07.13,0a2.55,2.55,0,0,0,.39.13c.27.07.46-.17.68-.49.31-.48.78-1.44,1.35-2.61l1-2.14c.93-1.89,1.1-2.23,1.26-2.63s.18-.67-.18-1a2.14,2.14,0,0,0-.39-.24s-.09-.07-.06-.12.1-.07.24,0c.54.27,1.29.68,1.35.71s1,.43,1.33.62c.14.06.18.11.15.19a.09.09,0,0,1-.13,0l-.42-.16c-.38-.11-.58.05-.82.46s-.38.72-1.31,2.61Z" style="fill:url(#linear-gradient-17)"/><path d="M116.68,26.46c-.72,1.09-1.31,2-1.56,2.49-.19.35-.28.64,0,.91.14.12.37.31.47.38s.07.09,0,.13-.12.05-.24,0c-.62-.41-1.31-.92-1.37-.95l-1.12-.7c-.13-.08-.17-.14-.12-.21s.06-.05.13,0a1.59,1.59,0,0,0,.37.18c.26.1.48-.11.74-.4.37-.44,1-1.33,1.67-2.41l1.31-2c1.17-1.76,1.38-2.07,1.59-2.45s.25-.66,0-.88a2.35,2.35,0,0,0-.32-.28s-.08-.08,0-.12.12-.06.24,0c.37.25,1.06.75,1.12.79s.79.47,1.12.7c.13.08.17.14.13.21a.11.11,0,0,1-.14,0,1.57,1.57,0,0,0-.3-.16c-.34-.14-.56,0-.84.37s-.47.66-1.64,2.42Z" style="fill:url(#linear-gradient-18)"/><path d="M123.18,31.55c-.86,1-1.56,1.78-1.89,2.25s-.37.59-.1.9c.13.15.33.36.42.45a.09.09,0,0,1,0,.13s-.12,0-.23-.06c-.56-.5-1.17-1.09-1.22-1.14s-.72-.57-1-.85c-.12-.09-.15-.16-.09-.22s.07,0,.13,0a2,2,0,0,0,.34.23c.24.14.49,0,.79-.3s1.13-1.18,2-2.15l3.79-4.29-1.52-1.3c-.63-.55-.94-.69-1.32-.59a2.82,2.82,0,0,0-.45.16c-.1.06-.15,0-.19,0s0-.07,0-.13,1.06-.8,1.16-.86.23-.14.27-.1a2.37,2.37,0,0,0,.34.51c.26.29.63.65.75.76l3.8,3.36a6.14,6.14,0,0,0,.77.59c.17.11.28.16.32.2s0,.1-.05.16c-.27.31-.92,1-1,1.09s-.14.1-.19.07,0-.09.07-.24l.09-.12c.24-.34.21-.78-.75-1.66L127,27.27Z" style="fill:url(#linear-gradient-19)"/><path d="M129,38.22a3,3,0,0,0,.92-1.13c.11-.21,1.29-3.49,1.54-4.3a3.69,3.69,0,0,0,.21-1.34,1.19,1.19,0,0,0-.2-.59c0-.06-.06-.13,0-.17s.11,0,.19.08.76,1,.8,1.07.42.45.75.86c.09.12.08.16,0,.2s-.1,0-.22-.08a.27.27,0,0,0-.3,0,1.12,1.12,0,0,0-.3.47c-.17.41-1.62,4.18-1.78,4.61.61-.15,4-.66,4.51-.73a1.29,1.29,0,0,0,.68-.25c.15-.12.23-.26.16-.41s-.07-.2,0-.24.12,0,.2.12c.22.27.46.64.53.72s.69.8.85,1,.09.15,0,.18-.13,0-.2-.07a1.26,1.26,0,0,0-.53-.36,2.52,2.52,0,0,0-1-.13,41.6,41.6,0,0,0-5,.68,3,3,0,0,0-1.19.69l-.9.72c-.17.14-.61.49-1,.88s-.45.55-.23.9c.09.16.26.41.33.51s0,.11,0,.13-.13,0-.22-.1c-.47-.58-1-1.27-1-1.32s-.61-.69-.86-1c-.1-.12-.12-.19,0-.24s.08,0,.13,0a2.57,2.57,0,0,0,.29.28c.21.18.52.09.85-.14s.91-.68,1.08-.81Z" style="fill:url(#linear-gradient-20)"/><path d="M39.39,116.7c1.47-1.49,1.74-1.75,2-2.07s.38-.57.13-.95a2,2,0,0,0-.3-.35s-.05-.1,0-.13.12,0,.22.07c.43.43,1,1,1,1.1.23.22.63.56,1.06,1,1.57,1.54,1,2.84.49,3.31a3.4,3.4,0,0,1-2.59.83,3.12,3.12,0,0,1-.35,3.64c-1,1-2.85,1.28-4.48-.34l-.66-.7c-.26-.3-.51-.57-.55-.61l-.39-.37c-.19-.18-.43-.38-.57-.52s-.13-.17-.08-.23.08,0,.13,0a2,2,0,0,0,.33.24c.23.15.48,0,.79-.25s1.19-1.1,2.1-2Zm-.45,2c-.72.74-1.9,1.92-2,2.07-.43.49-.56.63-.41,1.06a3.3,3.3,0,0,0,.7,1,1.78,1.78,0,0,0,2.68,0,3.16,3.16,0,0,0,1-2.81,2.14,2.14,0,0,0-.51-1.06,10.35,10.35,0,0,0-.73-.76s-.07,0-.12,0Zm1-1a.14.14,0,0,0,0,.18,4.72,4.72,0,0,0,.54.61c.53.53.68.64,1.11.61a2.08,2.08,0,0,0,1.3-.62c.78-.79,1.27-2,.34-2.91a2.84,2.84,0,0,0-.51-.41c-.1-.06-.16-.06-.22,0Z" style="fill:url(#linear-gradient-21)"/><path d="M46.27,123c1.24-1.68,1.47-2,1.7-2.34s.29-.62,0-.95a3.39,3.39,0,0,0-.34-.31.1.1,0,0,1,0-.13c.05-.06.12,0,.24.05s.53.39.76.58l.43.35c.07.06,2.22,1.64,2.47,1.81a3.41,3.41,0,0,0,.51.29c.06,0,.13,0,.19.06s0,.08,0,.13a5.89,5.89,0,0,0-.46.44c-.09.1-.46.56-.58.67s-.12.1-.16.06-.05-.11,0-.2a1.48,1.48,0,0,0,.23-.44c.05-.22,0-.43-.5-.93-.17-.15-1.33-1-1.45-1.12s-.09,0-.15.06l-2.2,3c0,.08-.06.12,0,.16s1.47,1.08,1.73,1.24.44.26.62.23.22-.06.26,0,0,.06,0,.12-.24.21-.53.54-.5.58-.55.66-.16.2-.23.15,0-.1,0-.15a1.75,1.75,0,0,0,.22-.39c.06-.18.1-.44-.29-.79s-1.31-1.06-1.5-1.2a.09.09,0,0,0-.13,0l-.7,1c-.27.37-1.2,1.61-1.36,1.84-.52.77-.46,1,.59,1.81a4,4,0,0,0,1.13.65c.37.09.65,0,1.06-.42.11-.1.16-.13.21-.09s0,.13,0,.21a12.85,12.85,0,0,1-.92.94c-.28.23-.36.16-.79-.15-.8-.6-1.38-1.06-1.79-1.38L43,128.3l-.44-.31c-.21-.16-.48-.32-.64-.44s-.15-.15-.11-.22.07,0,.14,0a1.75,1.75,0,0,0,.35.2c.25.12.48-.08.75-.36s1-1.27,1.79-2.3Z" style="fill:url(#linear-gradient-22)"/><path d="M49.64,132.64c-.12-.17-.11-.23.07-.54.32-.59.62-1,.74-1.22s.14-.17.2-.14.06.08,0,.18a2.76,2.76,0,0,0-.21.45,1.85,1.85,0,0,0,1.09,2.16,1.8,1.8,0,0,0,2.54-.65c.44-.81.36-1.47-.2-2.86l-.29-.72c-.68-1.71-.57-2.59-.13-3.39.69-1.26,2.1-1.6,3.59-.78a5,5,0,0,1,1,.71,2.5,2.5,0,0,0,.38.29c.1.05.11.08.08.14a13.09,13.09,0,0,0-.74,1.22c-.1.19-.17.26-.23.23s0-.1,0-.21a2.13,2.13,0,0,0,.17-.67c0-.16,0-.83-1.13-1.42a1.52,1.52,0,0,0-2.19.57c-.37.67-.29,1.26.35,2.76l.19.44c.79,1.85.72,2.76.21,3.7a2.79,2.79,0,0,1-2.07,1.41,3.58,3.58,0,0,1-2.05-.48A4,4,0,0,1,49.64,132.64Z" style="fill:url(#linear-gradient-23)"/><path d="M62.27,134.48c-.45,1.21-.82,2.2-1,2.75-.1.38-.13.68.23.87a5.09,5.09,0,0,0,.54.26c.08,0,.09.08.08.11s-.1.08-.24,0c-.69-.26-1.47-.59-1.53-.61s-.87-.28-1.25-.43c-.13-.05-.19-.09-.16-.17s0-.07.13,0a1.7,1.7,0,0,0,.39.09c.27,0,.44-.21.63-.55.26-.5.62-1.5,1.08-2.7l2-5.31-1.87-.67c-.78-.28-1.12-.3-1.43-.08a3.14,3.14,0,0,0-.36.31c-.08.09-.12.1-.17.08s0-.06,0-.13.7-1.12.76-1.21.16-.21.21-.19.17.21.5.36.82.38,1,.43l4.71,1.76a5.69,5.69,0,0,0,.91.27c.2,0,.33,0,.38.07s0,.09,0,.17c-.14.38-.5,1.23-.55,1.37s-.1.14-.15.13-.07-.07,0-.25l0-.15c.1-.39-.09-.79-1.29-1.26l-1.57-.62Z" style="fill:url(#linear-gradient-24)"/><path d="M79.24,141.76a5.36,5.36,0,0,1-2.14.24,5,5,0,0,1-4.68-5.77,5.19,5.19,0,0,1,5.78-4.68c3,.31,5,2.44,4.73,5.53a5.52,5.52,0,0,1-2.81,4.24L82.71,143a12.31,12.31,0,0,0,5.45,2.14,7.51,7.51,0,0,0,2.68-.25l.19,0c.06,0,.08,0,.07.09s0,.09-.11.12a10.22,10.22,0,0,1-4.32.5,11.69,11.69,0,0,1-5.32-2.34Zm-1.77-.23c1.2.12,3.75-.32,4.14-4.2.33-3.2-1.45-5.12-3.55-5.33s-4,1.07-4.34,4C73.41,139.1,75.07,141.28,77.47,141.53Z" style="fill:url(#linear-gradient-25)"/><path d="M85.9,136c-.21-2.08-.24-2.45-.31-2.88s-.2-.65-.65-.7a2.36,2.36,0,0,0-.46,0s-.11,0-.11-.07.06-.11.2-.13c.6-.05,1.42-.09,1.54-.11l1.32-.16c.14,0,.21,0,.22.08s0,.09-.1.09l-.33.07c-.35.09-.44.34-.42.81s.06.81.26,2.89l.18,1.87c.19,1.92.69,2.7,1.32,3.19a2.57,2.57,0,0,0,2.09.54,2.81,2.81,0,0,0,2-1.16A5.18,5.18,0,0,0,93.1,137l-.16-1.66c-.2-2.09-.24-2.46-.31-2.88s-.19-.66-.64-.71a1.78,1.78,0,0,0-.46,0s-.11,0-.12-.07.06-.12.21-.13c.6-.06,1.34-.09,1.42-.1s.71-.11,1.11-.15c.15,0,.22,0,.23.09s0,.08-.1.09a2.2,2.2,0,0,0-.33.07c-.35.12-.44.34-.42.81s0,.8.25,2.88l.14,1.43c.14,1.44.14,3.06-.84,4.11A3.85,3.85,0,0,1,90.43,142a4.07,4.07,0,0,1-2.84-.67,4.47,4.47,0,0,1-1.5-3.4Z" style="fill:url(#linear-gradient-26)"/><path d="M98.67,130.46c0-.47.07-.56.14-.58s.15,0,.42.38,3.81,5.23,5.13,7c.78,1,1.21,1.13,1.51,1.13a2,2,0,0,0,.54-.06c.07,0,.13,0,.15,0s-.09.13-.23.17-1.14.31-2,.53c-.25.06-.39.09-.41,0s0-.09.06-.12.12-.18,0-.37l-2.07-2.85a.1.1,0,0,0-.13,0l-2.78.76a.15.15,0,0,0-.11.14l-.15,2.5a3.15,3.15,0,0,0,.06.91c.07.26.37.3.59.25l.13,0c.09,0,.14,0,.15,0s0,.13-.16.16c-.31.08-.88.2-1,.23s-.85.28-1.45.44c-.17.05-.26,0-.28,0s0-.1.1-.11l.37-.13c.57-.24.7-.8.75-1.51Zm2.75,4.8c.07,0,.06,0,0-.1L99.27,132c-.12-.18-.18-.16-.19.05l-.19,3.81c0,.07,0,.09.06.08Z" style="fill:url(#linear-gradient-27)"/><path d="M109,133.15c.79,1.81,1.19,2.57,1.5,2.69s.64.06,1.6-.36c.65-.29,1.19-.54,1.32-1a1.75,1.75,0,0,0,0-.88c0-.1,0-.17,0-.2s.1,0,.15.15a8.58,8.58,0,0,1,.36,1.3c0,.32,0,.39-.63.67-.88.39-1.53.65-2,.86s-.91.36-1.27.52l-.5.23-.68.33c-.14.06-.21.06-.24,0s0-.09.06-.12a2.5,2.5,0,0,0,.35-.21c.22-.15.16-.45.06-.83-.17-.54-.59-1.51-1.11-2.69l-1-2.16c-.84-1.91-1-2.26-1.19-2.64s-.39-.56-.83-.47a2.54,2.54,0,0,0-.44.15s-.11,0-.13,0,0-.13.16-.18c.55-.25,1.34-.55,1.4-.58s.94-.46,1.31-.62c.13,0,.21-.06.24,0s0,.09-.07.11-.25.13-.39.22c-.33.22-.33.47-.17.91s.3.74,1.14,2.66Z" style="fill:url(#linear-gradient-28)"/><path d="M116.52,129.26c.65,1.11,1.19,2,1.53,2.47s.45.53.82.37a4.87,4.87,0,0,0,.55-.26c.07,0,.11,0,.13,0s0,.12-.13.2c-.63.37-1.38.76-1.44.8s-.76.49-1.11.69c-.13.08-.2.09-.24,0s0-.08.05-.12a2,2,0,0,0,.32-.25c.2-.18.11-.47,0-.83-.22-.52-.76-1.43-1.41-2.54l-1.2-2c-1.06-1.8-1.24-2.13-1.49-2.48s-.48-.51-.77-.42a2.41,2.41,0,0,0-.38.16s-.11,0-.14,0,0-.13.13-.2c.38-.22,1.13-.62,1.19-.65s.76-.5,1.11-.7c.13-.08.2-.09.24,0s0,.1,0,.13a2,2,0,0,0-.27.2c-.28.24-.25.49,0,.91s.38.71,1.44,2.51Z" style="fill:url(#linear-gradient-29)"/><path d="M123.3,124.57c.79,1,1.44,1.85,1.84,2.25s.51.47.86.27c.17-.1.42-.26.51-.33s.11,0,.14,0,0,.12-.11.21c-.58.45-1.27.94-1.32,1s-.7.59-1,.84c-.11.09-.18.11-.23,0s0-.08,0-.12a2.65,2.65,0,0,0,.29-.29c.18-.21,0-.48-.15-.82s-.94-1.32-1.72-2.34l-3.48-4.48L117.39,122c-.64.52-.84.79-.81,1.17a2.8,2.8,0,0,0,.07.47c0,.11,0,.15,0,.19s-.08,0-.13-.06-.58-1.18-.62-1.28-.09-.25,0-.28a2.34,2.34,0,0,0,.56-.24c.34-.2.75-.49.88-.59l4-3.08a5,5,0,0,0,.71-.63c.14-.15.21-.25.26-.29s.1,0,.15.09l.87,1.19c.07.09.07.16,0,.19s-.1,0-.22-.11l-.11-.11c-.27-.29-.71-.34-1.75.43l-1.35,1Z" style="fill:url(#linear-gradient-30)"/><path d="M130.15,118.88a3,3,0,0,0-1.24-.74c-.22-.07-3.59-.78-4.42-.92a3.77,3.77,0,0,0-1.35,0,1.22,1.22,0,0,0-.55.27s-.11.08-.16,0,0-.1,0-.19l.93-.94c.07-.07.39-.46.75-.84.1-.11.15-.1.19-.07s0,.11-.06.23a.27.27,0,0,0,.06.29,1.16,1.16,0,0,0,.5.23c.43.11,4.33,1,4.78,1.11-.24-.57-1.22-3.82-1.35-4.32a1.25,1.25,0,0,0-.35-.63c-.13-.13-.28-.19-.42-.1s-.18.1-.23,0,0-.11.08-.21c.24-.26.57-.54.64-.62s.68-.79.86-1,.14-.11.18-.08,0,.13,0,.2a1.31,1.31,0,0,0-.29.58,2.56,2.56,0,0,0,0,1,41.94,41.94,0,0,0,1.35,4.78,3.24,3.24,0,0,0,.84,1.06l.84.79c.16.15.57.53,1,.89s.6.36.92.1a5,5,0,0,0,.45-.4c.05-.06.1,0,.13,0s0,.12-.07.23c-.5.53-1.11,1.12-1.15,1.17s-.6.69-.87,1c-.11.11-.17.14-.23.09s0-.08,0-.13a2,2,0,0,0,.23-.34c.15-.23,0-.52-.25-.8s-.79-.8-.95-1Z" style="fill:url(#linear-gradient-31)"/></g><path d="M36.66,35.26c-1.57-1.42-1.85-1.67-2.19-1.94s-.59-.35-1-.09a2.58,2.58,0,0,0-.34.32s-.1.06-.13,0,0-.13.06-.23c.41-.45,1-1.06,1.06-1.11.21-.24.54-.66,1-1.13,1.49-1.64,2.82-1.1,3.32-.65a3.43,3.43,0,0,1,1,2.58,3.17,3.17,0,0,1,3.69.18c1.07,1,1.42,2.82-.13,4.54l-.68.69c-.28.27-.55.55-.58.59s-.18.19-.36.41-.37.45-.5.6-.17.14-.23.09,0-.08,0-.14a2,2,0,0,0,.23-.34c.14-.23,0-.48-.29-.78s-1.17-1.15-2.14-2Zm.94-.6a.14.14,0,0,0,.18,0,6.19,6.19,0,0,0,.59-.58c.51-.56.61-.72.56-1.15a2.08,2.08,0,0,0-.68-1.28c-.84-.75-2.07-1.19-3-.2a2.92,2.92,0,0,0-.38.52c-.06.11-.06.17,0,.22Zm1.07,1,2.17,2c.52.41.66.54,1.1.36a3.11,3.11,0,0,0,.94-.74,1.81,1.81,0,0,0-.14-2.71,3.26,3.26,0,0,0-2.89-.84,2.18,2.18,0,0,0-1,.57c-.14.11-.59.62-.73.77s0,.07,0,.12Z" style="fill:url(#linear-gradient-32)"/><path d="M43.71,28.15c-1.32-1.64-1.56-1.93-1.86-2.25s-.53-.44-.93-.24a3.19,3.19,0,0,0-.38.26s-.11,0-.14,0,0-.13.1-.22.52-.43.76-.6l.45-.33,2.4-2a4.82,4.82,0,0,0,.41-.42s0-.13.1-.17.08,0,.12.06.11.24.32.56c.07.11.42.59.51.73s.06.15,0,.18-.13,0-.2-.07a1.37,1.37,0,0,0-.37-.32c-.21-.11-.41-.16-1,.24-.2.13-1.35,1-1.47,1.14s0,.08,0,.15l2.35,2.9c.06.08.1.1.15.06s1.43-1.16,1.66-1.38.36-.36.37-.55,0-.23,0-.26.07,0,.12,0,.14.28.39.66c.15.22.44.63.5.7s.17.2.09.26-.11,0-.15,0a1.19,1.19,0,0,0-.32-.31c-.17-.12-.4-.22-.85.07s-1.36,1-1.54,1.16a.1.1,0,0,0,0,.14l.75.92c.29.36,1.27,1.59,1.46,1.8.62.7.89.71,1.92-.13a3.83,3.83,0,0,0,.91-.93,1.07,1.07,0,0,0-.14-1.14c-.07-.13-.08-.19,0-.23s.13,0,.19.1.56.87.69,1.13.06.4-.35.74c-.78.63-1.38,1.08-1.8,1.4s-.69.51-.84.63l-.42.36-.59.51c-.11.09-.18.12-.23,0s0-.08,0-.13a1.61,1.61,0,0,0,.28-.3c.18-.21,0-.48-.16-.82S46,31,45.21,30Z" style="fill:url(#linear-gradient-33)"/><path d="M53.47,28.45c-.21,0-.25,0-.43-.34-.35-.58-.57-1.08-.67-1.27s-.08-.21,0-.24.1,0,.16.08a2.45,2.45,0,0,0,.29.41,1.83,1.83,0,0,0,2.42.17A1.81,1.81,0,0,0,56,24.72c-.47-.8-1.09-1.07-2.58-1.3l-.77-.12c-1.84-.28-2.54-.84-3-1.63-.74-1.25-.31-2.65,1.17-3.53a5.47,5.47,0,0,1,1.15-.52,2.16,2.16,0,0,0,.44-.18c.09-.06.13-.05.16,0s.22.47.69,1.26c.11.19.13.28.07.32s-.11,0-.18-.1a2.53,2.53,0,0,0-.49-.49c-.15-.09-.75-.39-1.82.24a1.54,1.54,0,0,0-.64,2.2c.39.67,1,.91,2.58,1.12l.48.06c2,.27,2.77.8,3.32,1.73a2.8,2.8,0,0,1,.15,2.52,3.5,3.5,0,0,1-1.47,1.53A4.17,4.17,0,0,1,53.47,28.45Z" style="fill:url(#linear-gradient-34)"/><path d="M62.29,19.82c.47,1.21.87,2.2,1.14,2.71.19.34.37.59.77.49l.58-.17c.08,0,.12,0,.13,0s0,.13-.16.18c-.69.28-1.5.55-1.56.58s-.84.38-1.22.53c-.13,0-.21,0-.24,0s0-.08.07-.11a2.08,2.08,0,0,0,.36-.2c.23-.15.19-.45.09-.84-.14-.55-.54-1.54-1-2.75l-2.11-5.31-1.85.76c-.77.32-1,.53-1.12.91a2.46,2.46,0,0,0-.06.48c0,.11,0,.15-.08.17s-.07,0-.1-.09-.23-1.3-.25-1.41,0-.27,0-.29a2.89,2.89,0,0,0,.62-.07c.38-.11.86-.27,1-.33L62,13.19a5.49,5.49,0,0,0,.87-.42c.17-.1.27-.18.32-.2s.09,0,.12.12c.15.38.46,1.26.51,1.4s0,.18,0,.2-.1,0-.18-.17L63.59,14c-.19-.36-.6-.53-1.82-.08l-1.59.61Z" style="fill:url(#linear-gradient-35)"/><path d="M80,19.62a5.49,5.49,0,0,1-2.06.67,5.08,5.08,0,0,1-5.8-4.77,5.23,5.23,0,0,1,4.78-5.79c3-.31,5.48,1.39,5.79,4.51A5.54,5.54,0,0,1,80.79,19l2.91,1.15a12.36,12.36,0,0,0,5.82,1,7.65,7.65,0,0,0,2.6-.79l.19-.08a.1.1,0,0,1,.09.08c0,.05,0,.09-.1.14a10.26,10.26,0,0,1-4.17,1.36,11.61,11.61,0,0,1-5.73-1.25Zm-1.8.12c1.22-.12,3.65-1.07,3.26-5C81.15,11.52,79,10,76.88,10.2S73.09,12.07,73.39,15C73.71,18.16,75.79,20,78.21,19.74Z" style="fill:url(#linear-gradient-36)"/><path d="M86.39,13.46c.24-2.09.28-2.47.31-2.9s-.06-.69-.49-.83a2.21,2.21,0,0,0-.46-.09s-.1,0-.09-.1.08-.1.22-.08c.61.07,1.42.2,1.54.21s.93.07,1.34.12c.14,0,.21.05.2.13s-.06.08-.12.07H88.5c-.37,0-.5.24-.58.71s-.12.8-.36,2.9l-.22,1.88c-.22,1.93.11,2.81.63,3.43a2.64,2.64,0,0,0,1.94,1,2.82,2.82,0,0,0,2.22-.72A5.31,5.31,0,0,0,93.29,16l.19-1.68c.24-2.1.28-2.47.31-2.9s-.06-.69-.49-.84a2.21,2.21,0,0,0-.46-.09s-.1,0-.09-.09.07-.1.22-.09c.61.07,1.34.19,1.42.2s.73,0,1.13.1c.15,0,.22,0,.21.13a.1.1,0,0,1-.12.07h-.34c-.37,0-.5.24-.58.71s-.13.8-.36,2.9l-.17,1.43c-.17,1.45-.51,3-1.7,3.88a4,4,0,0,1-2.88.67,4.13,4.13,0,0,1-2.65-1.27c-.59-.71-1-1.71-.77-3.67Z" style="fill:url(#linear-gradient-37)"/><path d="M101.93,12.66c.29-.38.36-.44.44-.41s.11.1.14.55.43,6.51.62,8.72c.11,1.29.42,1.62.66,1.78a2,2,0,0,0,.5.24c.07,0,.12.05.1.11s-.15.07-.29,0-1.14-.35-2-.65c-.24-.09-.38-.14-.36-.21s.06-.07.12-.07.2-.09.18-.32l-.22-3.55a.14.14,0,0,0-.09-.12l-2.78-.85a.15.15,0,0,0-.16.06L97.29,20a2.8,2.8,0,0,0-.45.81c-.08.26.16.46.38.53l.13,0c.09,0,.12.06.1.11s-.11.08-.23,0l-1-.35c-.14-.05-.87-.23-1.47-.41-.17-.05-.24-.1-.22-.18s.08-.06.14,0l.39.09c.61.1,1-.31,1.46-.88Zm-.25,5.59c.07,0,.08,0,.08-.08l-.15-3.87c0-.21-.07-.23-.19-.06L99.2,17.38c0,.06,0,.09,0,.11Z" style="fill:url(#linear-gradient-38)"/><path d="M108.75,21.72c-.88,1.78-1.21,2.58-1.1,2.91s.38.53,1.32,1c.65.32,1.19.57,1.65.36a1.87,1.87,0,0,0,.67-.57c.06-.1.12-.14.19-.11s0,.09,0,.22a9.1,9.1,0,0,1-.78,1.12c-.23.24-.29.27-.93,0-.87-.43-1.49-.77-2-1s-.87-.47-1.22-.64l-.5-.23-.71-.32c-.13-.07-.18-.12-.14-.19s.06-.06.13,0a2.55,2.55,0,0,0,.39.13c.27.07.46-.16.68-.49.31-.48.78-1.44,1.35-2.61l1.05-2.14c.93-1.89,1.1-2.23,1.27-2.63s.17-.67-.19-1a2.89,2.89,0,0,0-.39-.24s-.09-.07-.06-.12.11-.06.24,0c.54.27,1.29.68,1.35.71s1,.43,1.33.62c.14.06.18.12.15.19s-.09.05-.13,0l-.42-.16c-.38-.11-.58.05-.82.47s-.38.71-1.31,2.6Z" style="fill:url(#linear-gradient-39)"/><path d="M116.16,26a29.28,29.28,0,0,0-1.56,2.48c-.19.35-.28.64,0,.91a5.62,5.62,0,0,0,.47.38c.07.05.07.09.05.13s-.12,0-.24,0c-.62-.41-1.31-.91-1.37-.95l-1.12-.7c-.13-.08-.17-.14-.12-.21s.06-.05.13,0a1.81,1.81,0,0,0,.37.18c.26.11.48-.1.74-.4s1-1.33,1.67-2.41l1.32-2c1.16-1.76,1.37-2.07,1.58-2.45s.25-.66,0-.88a1.87,1.87,0,0,0-.32-.28s-.08-.08,0-.12.12-.06.24,0c.38.24,1.06.75,1.12.78s.79.47,1.13.7c.12.08.16.14.12.21a.11.11,0,0,1-.14,0,1.57,1.57,0,0,0-.3-.16c-.34-.14-.56,0-.84.37s-.47.66-1.64,2.42Z" style="fill:url(#linear-gradient-40)"/><path d="M122.66,31c-.86,1-1.56,1.78-1.89,2.25s-.37.59-.1.9c.13.15.33.37.42.45s.06.1,0,.13-.12,0-.23-.06c-.56-.49-1.17-1.09-1.22-1.14s-.72-.57-1-.84c-.11-.1-.15-.17-.09-.23s.07,0,.13,0a2,2,0,0,0,.34.23c.24.14.49,0,.79-.3s1.13-1.18,2-2.15L125.6,26l-1.51-1.3c-.64-.55-1-.69-1.33-.59a2.82,2.82,0,0,0-.45.16c-.1.06-.15,0-.19,0s0-.07,0-.13,1.07-.8,1.16-.86.23-.14.27-.1a2.6,2.6,0,0,0,.34.52c.27.28.63.65.75.75l3.8,3.36a5.29,5.29,0,0,0,.77.59,2.9,2.9,0,0,1,.32.2c.06,0,0,.1-.05.16-.27.31-.92,1-1,1.09s-.14.11-.18.07-.05-.09.07-.24l.08-.12c.24-.34.21-.78-.75-1.66l-1.26-1.15Z" style="fill:url(#linear-gradient-41)"/><path d="M128.43,37.7a3,3,0,0,0,.92-1.13c.11-.21,1.29-3.49,1.55-4.3a3.63,3.63,0,0,0,.2-1.34,1.31,1.31,0,0,0-.19-.59c0-.05-.07-.13,0-.17s.11,0,.19.08.76,1,.8,1.07.42.45.75.86c.09.12.08.16,0,.2s-.1,0-.22-.08a.27.27,0,0,0-.3,0,1.23,1.23,0,0,0-.3.47c-.17.41-1.62,4.18-1.77,4.62.6-.16,4-.67,4.5-.74a1.25,1.25,0,0,0,.68-.25c.15-.12.23-.26.16-.41s-.07-.2,0-.24.12,0,.2.12c.22.27.46.64.53.72s.69.8.85,1,.09.15.05.19-.13,0-.2-.08a1.26,1.26,0,0,0-.53-.36,2.52,2.52,0,0,0-1-.13,41.6,41.6,0,0,0-5,.68,2.93,2.93,0,0,0-1.18.69l-.91.72c-.17.14-.61.49-1,.88s-.44.55-.23.9a5.75,5.75,0,0,0,.33.51c.06.06,0,.11,0,.13s-.13,0-.22-.1c-.47-.58-1-1.27-1-1.32s-.61-.69-.86-1c-.1-.11-.12-.18,0-.24s.08,0,.13,0a2.57,2.57,0,0,0,.29.28c.22.18.52.09.85-.14s.91-.68,1.08-.81Z" style="fill:url(#linear-gradient-42)"/><path d="M38.87,116.18c1.47-1.48,1.74-1.75,2-2.07s.38-.57.13-1a2,2,0,0,0-.3-.35s0-.1,0-.13.12,0,.22.07c.43.43,1,1,1,1.1.23.22.63.56,1.07,1,1.56,1.54,1,2.84.48,3.31a3.4,3.4,0,0,1-2.59.83,3.13,3.13,0,0,1-.34,3.64c-1,1-2.86,1.28-4.49-.33-.1-.11-.39-.43-.66-.71s-.51-.57-.55-.61-.18-.18-.39-.36-.43-.39-.57-.53-.13-.17-.08-.23.08,0,.14,0a1.57,1.57,0,0,0,.32.24c.23.15.48,0,.8-.24s1.18-1.11,2.09-2Zm-.45,2c-.72.74-1.89,1.92-2,2.07-.44.49-.57.63-.42,1.06a3.3,3.3,0,0,0,.7,1,1.78,1.78,0,0,0,2.68,0,3.19,3.19,0,0,0,1-2.81,2.23,2.23,0,0,0-.52-1.06c-.11-.15-.58-.62-.72-.76s-.08,0-.13,0Zm1-1a.13.13,0,0,0,0,.17,5.83,5.83,0,0,0,.54.61c.53.53.69.64,1.11.61a2.08,2.08,0,0,0,1.3-.62c.78-.79,1.27-2,.34-2.91a3.36,3.36,0,0,0-.51-.41c-.1-.06-.16-.06-.21,0Z" style="fill:url(#linear-gradient-43)"/><path d="M45.75,122.46c1.24-1.68,1.47-2,1.7-2.35s.29-.61,0-1a2,2,0,0,0-.34-.3s-.07-.09,0-.14.12,0,.24,0l.77.58.42.35c.08.06,2.22,1.64,2.47,1.81a4,4,0,0,0,.51.29c.06,0,.13,0,.19.06s0,.08,0,.13a5.89,5.89,0,0,0-.46.44c-.09.1-.46.56-.58.67s-.12.1-.16.06,0-.11,0-.2a1.4,1.4,0,0,0,.23-.43c0-.23,0-.44-.5-.94-.17-.15-1.33-1-1.45-1.12s-.09,0-.14.06l-2.2,3c-.06.08-.07.12,0,.16s1.47,1.08,1.73,1.24.44.26.62.23.22-.06.26,0,0,.06,0,.12-.23.21-.53.54-.5.59-.55.66-.15.2-.23.15,0-.1,0-.15a1.43,1.43,0,0,0,.22-.39c.06-.18.1-.44-.29-.79s-1.31-1.06-1.5-1.2a.08.08,0,0,0-.12,0l-.71,1c-.27.37-1.2,1.61-1.36,1.84-.52.77-.46,1,.6,1.81a3.78,3.78,0,0,0,1.12.65c.37.09.65,0,1.06-.42.11-.1.16-.13.21-.09s0,.14-.05.21a11.12,11.12,0,0,1-.92.94c-.28.23-.36.16-.78-.15-.81-.6-1.39-1.06-1.8-1.38s-.66-.53-.82-.65l-.43-.31c-.22-.16-.49-.32-.65-.44s-.15-.15-.1-.21.06,0,.13,0a1.75,1.75,0,0,0,.35.2c.25.12.48-.08.76-.36s1-1.26,1.78-2.3Z" style="fill:url(#linear-gradient-44)"/><path d="M49.12,132.12c-.12-.17-.11-.23.07-.54.32-.59.63-1,.74-1.22s.14-.17.2-.13.06.07,0,.17a2.14,2.14,0,0,0-.2.45A1.83,1.83,0,0,0,51,133a1.79,1.79,0,0,0,2.54-.65c.44-.81.36-1.47-.2-2.85l-.29-.73c-.68-1.7-.57-2.59-.13-3.39.69-1.26,2.1-1.6,3.59-.78a5,5,0,0,1,1,.71,2.5,2.5,0,0,0,.38.29c.1,0,.11.09.08.14a13.6,13.6,0,0,0-.73,1.22c-.11.19-.18.26-.24.23s0-.1,0-.2a2.59,2.59,0,0,0,.16-.68c0-.16,0-.83-1.13-1.42a1.52,1.52,0,0,0-2.19.57c-.37.67-.29,1.26.36,2.76l.18.44c.79,1.85.72,2.76.21,3.7a2.77,2.77,0,0,1-2.07,1.41,3.5,3.5,0,0,1-2-.48A4,4,0,0,1,49.12,132.12Z" style="fill:url(#linear-gradient-45)"/><path d="M61.75,134c-.45,1.21-.82,2.2-1,2.75-.1.38-.13.68.23.87a4.37,4.37,0,0,0,.55.26.1.1,0,0,1,.07.12c0,.06-.1.07-.24,0-.69-.26-1.47-.59-1.53-.61s-.87-.28-1.25-.42c-.13-.06-.19-.1-.16-.18s.05-.06.13,0a1.67,1.67,0,0,0,.4.09c.26.05.43-.2.62-.55.26-.5.63-1.5,1.08-2.7l2-5.31-1.87-.67c-.78-.28-1.12-.3-1.43-.08a3.14,3.14,0,0,0-.36.31c-.07.09-.12.1-.17.08s-.05-.06,0-.13.7-1.12.76-1.21.16-.21.22-.19a2.14,2.14,0,0,0,.49.36c.35.17.82.38,1,.43L66,128.92a5.69,5.69,0,0,0,.91.27c.2,0,.33.05.38.07s0,.09,0,.17c-.14.38-.5,1.23-.55,1.37s-.1.15-.15.13-.07-.07,0-.25l0-.15c.1-.39-.09-.79-1.29-1.26l-1.57-.62Z" style="fill:url(#linear-gradient-46)"/><path d="M78.72,141.24a5.18,5.18,0,0,1-2.14.24,5,5,0,0,1-4.68-5.77A5.18,5.18,0,0,1,77.68,131c3,.3,5,2.43,4.73,5.52a5.5,5.5,0,0,1-2.81,4.24l2.59,1.69a12.31,12.31,0,0,0,5.45,2.14,7.51,7.51,0,0,0,2.68-.25l.19,0a.09.09,0,0,1,.08.09s0,.09-.12.12a10.22,10.22,0,0,1-4.32.5,11.58,11.58,0,0,1-5.32-2.34ZM77,141c1.2.12,3.75-.32,4.14-4.2.33-3.2-1.45-5.12-3.55-5.33s-4,1.07-4.34,4C72.89,138.58,74.55,140.77,77,141Z" style="fill:url(#linear-gradient-47)"/><path d="M85.38,135.5c-.21-2.08-.24-2.45-.31-2.88s-.2-.65-.65-.7a2.26,2.26,0,0,0-.45,0c-.06,0-.11,0-.12-.07s.06-.11.2-.13c.6-.05,1.42-.09,1.54-.1s.92-.13,1.32-.17c.15,0,.21,0,.22.08s0,.09-.1.09a1.67,1.67,0,0,0-.33.08c-.35.08-.43.34-.41.8s0,.81.25,2.89l.18,1.87c.19,1.92.7,2.7,1.32,3.2a2.6,2.6,0,0,0,2.09.53,2.81,2.81,0,0,0,2-1.16,5.24,5.24,0,0,0,.46-3.35l-.17-1.66c-.2-2.09-.24-2.46-.3-2.88s-.2-.66-.65-.71a1.78,1.78,0,0,0-.46,0c-.05,0-.11,0-.11-.07s0-.12.2-.13c.6-.06,1.34-.09,1.42-.1s.72-.11,1.11-.15c.15,0,.22,0,.23.09s0,.08-.1.09a2.2,2.2,0,0,0-.33.07c-.35.12-.44.34-.42.81s0,.8.25,2.88l.14,1.43c.14,1.44.14,3.06-.84,4.11a3.91,3.91,0,0,1-2.65,1.26,4.16,4.16,0,0,1-2.84-.68,4.47,4.47,0,0,1-1.5-3.4Z" style="fill:url(#linear-gradient-48)"/><path d="M98.15,129.94c0-.47.07-.56.14-.58s.15,0,.42.38,3.81,5.23,5.14,7c.78,1,1.2,1.13,1.5,1.13a2,2,0,0,0,.54-.06c.07,0,.13,0,.15,0s-.09.13-.23.17-1.14.31-2,.53c-.25.06-.39.1-.41,0s0-.09.06-.12.12-.18,0-.37l-2.08-2.85a.1.1,0,0,0-.13-.05l-2.78.76a.13.13,0,0,0-.1.14l-.16,2.5a3.12,3.12,0,0,0,.06.91.45.45,0,0,0,.59.25l.13,0c.09,0,.14,0,.15,0s0,.13-.16.16l-1,.24c-.14,0-.84.27-1.45.43-.17,0-.25,0-.28,0s0-.09.1-.11l.37-.13c.57-.24.7-.8.75-1.51Zm2.75,4.8c.07,0,.06-.05,0-.1l-2.18-3.16c-.12-.18-.18-.16-.19.06l-.19,3.8c0,.07,0,.09.06.08Z" style="fill:url(#linear-gradient-49)"/><path d="M108.45,132.63c.79,1.81,1.19,2.57,1.51,2.69s.64.06,1.59-.36c.65-.28,1.19-.54,1.33-1a1.87,1.87,0,0,0,0-.88c0-.1,0-.17,0-.2s.1,0,.16.15a8.62,8.62,0,0,1,.35,1.31c0,.31,0,.38-.63.67-.88.39-1.53.64-2.05.85s-.91.36-1.27.52l-.5.23-.68.33c-.14.06-.21.06-.24,0s0-.08.06-.12a2.5,2.5,0,0,0,.35-.21c.22-.15.17-.45.06-.83-.17-.54-.59-1.51-1.11-2.69l-1-2.16c-.84-1.91-1-2.26-1.19-2.64s-.39-.56-.83-.47a2.86,2.86,0,0,0-.44.15.08.08,0,0,1-.12,0c0-.07,0-.12.15-.18.55-.25,1.34-.55,1.4-.58s.94-.45,1.31-.61c.13-.06.21-.07.24,0s0,.09-.07.11-.25.13-.39.22c-.32.22-.33.47-.17.91s.3.75,1.14,2.66Z" style="fill:url(#linear-gradient-50)"/><path d="M116,128.74c.65,1.11,1.19,2,1.53,2.47s.45.53.82.37a4.87,4.87,0,0,0,.55-.26c.07,0,.11,0,.13,0s0,.12-.13.2c-.63.37-1.38.76-1.44.8s-.76.49-1.11.7c-.13.07-.2.08-.24,0s0-.08,0-.12a2,2,0,0,0,.32-.25c.21-.18.11-.47,0-.83-.22-.52-.76-1.43-1.41-2.54l-1.2-2c-1.06-1.8-1.24-2.13-1.49-2.48s-.48-.51-.77-.42a1.71,1.71,0,0,0-.38.17s-.11,0-.14,0,0-.13.13-.2c.38-.22,1.13-.62,1.19-.65s.76-.5,1.11-.7c.13-.07.2-.09.24,0s0,.1,0,.13a2,2,0,0,0-.27.2c-.28.24-.25.49,0,.91s.39.71,1.44,2.51Z" style="fill:url(#linear-gradient-51)"/><path d="M122.79,124.05c.78,1,1.43,1.85,1.83,2.25s.51.47.86.27c.17-.1.42-.26.51-.33s.11,0,.14,0,0,.12-.11.21c-.58.45-1.27.94-1.32,1s-.7.59-1,.84c-.11.09-.18.11-.23,0s0-.08,0-.12a3.83,3.83,0,0,0,.28-.29c.18-.21,0-.48-.15-.82s-.94-1.32-1.72-2.34l-3.48-4.48-1.54,1.24c-.65.52-.85.79-.82,1.17a2.8,2.8,0,0,0,.07.47c0,.11,0,.16,0,.19s-.08,0-.13,0-.57-1.19-.62-1.29-.09-.25,0-.28a2.4,2.4,0,0,0,.56-.23c.34-.21.75-.5.88-.6l4-3.08a5,5,0,0,0,.71-.63c.14-.15.21-.25.26-.29s.1,0,.15.09l.87,1.19c.07.09.07.16,0,.19s-.1,0-.22-.11l-.1-.11c-.28-.29-.72-.34-1.76.43l-1.35,1Z" style="fill:url(#linear-gradient-52)"/><path d="M129.63,118.36a2.85,2.85,0,0,0-1.24-.73c-.22-.08-3.59-.79-4.42-.92a3.6,3.6,0,0,0-1.35,0,1.33,1.33,0,0,0-.55.27c0,.05-.11.08-.16,0s0-.11,0-.2.89-.89.94-.93.38-.47.74-.85c.1-.11.15-.1.19-.06s0,.1-.06.22a.27.27,0,0,0,.06.29,1.17,1.17,0,0,0,.5.24c.43.11,4.33,1,4.78,1.1-.24-.57-1.21-3.82-1.35-4.32a1.25,1.25,0,0,0-.35-.63c-.13-.13-.28-.19-.41-.1s-.19.1-.24,0,0-.11.09-.21c.23-.26.56-.54.63-.62s.68-.79.86-1,.14-.11.18-.08,0,.13,0,.2a1.31,1.31,0,0,0-.28.58,2.53,2.53,0,0,0,0,1,41.94,41.94,0,0,0,1.35,4.78,3.24,3.24,0,0,0,.84,1.06l.84.79c.16.15.57.53,1,.89s.6.36.92.1a3.81,3.81,0,0,0,.45-.4c0-.06.1,0,.13,0s0,.12-.07.23c-.5.53-1.11,1.12-1.15,1.17l-.87,1c-.11.1-.17.13-.23.08s0-.08,0-.13a2.44,2.44,0,0,0,.23-.33c.15-.24,0-.53-.25-.81s-.79-.8-.95-.95Z" style="fill:url(#linear-gradient-53)"/><path d="M28.13,74c0-2.16,0-2.56,0-3s-.15-.71-.62-.81a2.75,2.75,0,0,0-.55,0c-.16,0-.24,0-.24-.13s.1-.13.31-.13c.75,0,1.65,0,2,0,.58,0,1.4,0,2.06,0a3.49,3.49,0,0,1,2.64.81,2.49,2.49,0,0,1,.71,1.69A3.34,3.34,0,0,1,31,75.83h-.3c-.07,0-.17,0-.17-.13s.1-.16.39-.16a2.23,2.23,0,0,0,1.91-2.34A2.72,2.72,0,0,0,32,71.06a2.11,2.11,0,0,0-1.42-.56,2,2,0,0,0-.55.06c-.08,0-.12.11-.12.27v5.68c0,1.31,0,2.43.07,3,.05.4.13.72.56.77a5.67,5.67,0,0,0,.72.06c.16,0,.23,0,.23.11s-.12.14-.27.14c-.94,0-1.83,0-2.2,0s-1.23,0-1.79,0c-.19,0-.29,0-.29-.14s.06-.11.23-.11a2.23,2.23,0,0,0,.51-.06c.28,0,.36-.37.41-.78.07-.6.07-1.72.07-3Z" style="fill:url(#linear-gradient-54)"/><path d="M43.13,74c0-2.16,0-2.56,0-3s-.14-.71-.61-.81a2.75,2.75,0,0,0-.55,0c-.16,0-.24,0-.24-.13s.1-.13.31-.13c.75,0,1.65,0,2,0l2,0a4.52,4.52,0,0,1,2.62.61,2.49,2.49,0,0,1,1,2c0,1-.44,2-1.87,3.18,1.26,1.59,2.24,2.86,3.08,3.74a2.83,2.83,0,0,0,1.59,1,1.61,1.61,0,0,0,.4,0c.11,0,.17,0,.17.11s-.1.14-.27.14H51.29a3,3,0,0,1-1.52-.26,7,7,0,0,1-2-2.09c-.57-.79-1.22-1.75-1.4-2a.32.32,0,0,0-.26-.1l-1.24,0c-.07,0-.11,0-.11.11v.2c0,1.32,0,2.44.07,3,0,.41.13.73.56.78a6,6,0,0,0,.69.06c.12,0,.17,0,.17.11s-.1.14-.28.14c-.82,0-1.88,0-2.09,0s-1.17,0-1.73,0c-.19,0-.29,0-.29-.14s.06-.11.23-.11a2.23,2.23,0,0,0,.51-.06c.29,0,.35-.37.41-.78.07-.6.07-1.72.07-3Zm1.68,1.12c0,.16,0,.22.13.26a3.71,3.71,0,0,0,1.08.14,1.45,1.45,0,0,0,1-.24,2.52,2.52,0,0,0,.84-2.13c0-2-1.34-2.6-2.18-2.6a2.73,2.73,0,0,0-.75.06c-.1,0-.13.08-.13.19Z" style="fill:url(#linear-gradient-55)"/><path d="M59.56,74c0-2.16,0-2.56,0-3s-.15-.71-.61-.81a2.92,2.92,0,0,0-.56,0c-.15,0-.24,0-.24-.13s.1-.13.31-.13h1.15l.9,0H64a5.23,5.23,0,0,0,.61-.09,1.89,1.89,0,0,1,.23,0c.07,0,.09,0,.09.12a7.33,7.33,0,0,0-.12.93c0,.14,0,.77-.07.94s0,.15-.14.15-.13-.07-.13-.2a1.55,1.55,0,0,0-.08-.51c-.1-.25-.25-.42-1-.51-.24,0-1.73-.06-2-.06-.08,0-.1,0-.1.15v3.59c0,.1,0,.16.1.16.31,0,1.94,0,2.27,0a1,1,0,0,0,.68-.21c.1-.12.16-.19.23-.19s.1,0,.1.11-.06.32-.12,1c0,.29,0,.86,0,.95s0,.27-.13.27-.13,0-.13-.12a3.25,3.25,0,0,0,0-.51c-.08-.29-.28-.5-.8-.56-.27,0-1.68,0-2,0-.07,0-.08,0-.08.14v1.12c0,.49,0,1.79,0,2.2,0,1,.25,1.2,1.7,1.2a3.64,3.64,0,0,0,1.34-.17c.37-.17.54-.47.64-1,0-.16,0-.22.15-.22s.12.12.12.26a11.38,11.38,0,0,1-.19,1.58c-.1.37-.23.37-.77.37-1.06,0-1.84,0-2.45-.05s-1.06,0-1.48,0c-.16,0-.47,0-.81,0l-1,0c-.19,0-.29,0-.29-.14s.06-.11.23-.11a2.23,2.23,0,0,0,.51-.06c.29,0,.36-.37.41-.78a30.09,30.09,0,0,0,.08-3Z" style="fill:url(#linear-gradient-56)"/><path d="M74.75,70.06c0-.24.13-.37.25-.37s.19.07.38.44L79.26,78l3.86-8c.12-.23.19-.34.32-.34s.21.14.25.44l1.3,8.7c.13.89.27,1.31.69,1.44a3.09,3.09,0,0,0,.88.14c.13,0,.23,0,.23.1s-.17.15-.37.15c-.35,0-2.32,0-2.88-.07-.33,0-.42-.07-.42-.16s.06-.11.16-.15.13-.21.07-.61l-.85-6.19h-.06l-3.1,6.34c-.32.67-.39.8-.52.8s-.27-.29-.5-.71c-.34-.65-1.46-2.83-1.63-3.23s-1-2-1.48-3h-.06l-.74,5.54a5.44,5.44,0,0,0,0,.67c0,.27.18.4.43.46a2.48,2.48,0,0,0,.59.07c.12,0,.22,0,.22.1s-.13.15-.34.15c-.6,0-1.24,0-1.5,0s-1,0-1.4,0c-.15,0-.26,0-.26-.15s.09-.1.23-.1a1.53,1.53,0,0,0,.42,0c.4-.08.52-.63.59-1.12Z" style="fill:url(#linear-gradient-57)"/><path d="M94.75,74c0-2.16,0-2.56,0-3s-.17-.73-.49-.8a2.1,2.1,0,0,0-.51,0c-.14,0-.23,0-.23-.15s.12-.11.34-.11c.55,0,1.44,0,1.85,0s1.2,0,1.74,0c.18,0,.29,0,.29.11s-.08.15-.22.15a2.29,2.29,0,0,0-.43,0c-.38.07-.5.31-.52.81s0,.85,0,3v2.5c0,1.38,0,2.5,0,3.12,0,.38.15.64.57.69a5.67,5.67,0,0,0,.73.06c.15,0,.22,0,.22.11s-.11.14-.27.14c-.93,0-1.83,0-2.21,0s-1.22,0-1.79,0c-.19,0-.29,0-.29-.14s.06-.11.23-.11a2.23,2.23,0,0,0,.51-.06c.29,0,.37-.3.41-.71a30.91,30.91,0,0,0,.08-3.1Z" style="fill:url(#linear-gradient-58)"/><path d="M106.25,74c0-2.16,0-2.56,0-3s-.14-.71-.61-.81a2.86,2.86,0,0,0-.56,0c-.15,0-.24,0-.24-.13s.1-.13.31-.13c.76,0,1.65,0,2.08,0s1.24,0,1.75,0c.21,0,.31,0,.31.13s-.09.13-.23.13a2,2,0,0,0-.41,0c-.38.07-.5.31-.53.81s0,.85,0,3v2c0,2.06.41,2.93,1.1,3.5a2.67,2.67,0,0,0,1.78.58,2.77,2.77,0,0,0,2-.77c.79-.78.83-2.06.83-3.52V74c0-2.16,0-2.56,0-3s-.14-.71-.61-.81a2.71,2.71,0,0,0-.51,0c-.16,0-.25,0-.25-.13s.1-.13.3-.13c.73,0,1.62,0,1.64,0,.17,0,1.06,0,1.62,0,.2,0,.3,0,.3.13s-.09.13-.26.13a2,2,0,0,0-.41,0c-.39.07-.5.31-.53.81s0,.85,0,3v1.52c0,1.58-.15,3.26-1.35,4.28a4.21,4.21,0,0,1-3,1,4.57,4.57,0,0,1-3.16-1c-.72-.65-1.26-1.7-1.26-3.76Z" style="fill:url(#linear-gradient-59)"/><path d="M125,70.06c0-.24.13-.37.24-.37s.2.07.38.44l3.88,7.9,3.87-8c.11-.23.18-.34.31-.34s.21.14.26.44l1.29,8.7c.13.89.27,1.31.7,1.44a3,3,0,0,0,.88.14c.13,0,.23,0,.23.1s-.18.15-.37.15c-.36,0-2.32,0-2.89-.07-.33,0-.41-.07-.41-.16s.06-.11.16-.15.12-.21.07-.61l-.86-6.19h0l-3.1,6.34c-.33.67-.4.8-.53.8s-.27-.29-.49-.71c-.35-.65-1.47-2.83-1.64-3.23s-1-2-1.48-3h0l-.74,5.54a5.58,5.58,0,0,0-.05.67c0,.27.19.4.43.46a2.61,2.61,0,0,0,.6.07c.11,0,.21,0,.21.1s-.13.15-.34.15c-.6,0-1.24,0-1.49,0s-1,0-1.41,0c-.14,0-.25,0-.25-.15s.08-.1.22-.1a1.59,1.59,0,0,0,.43,0c.4-.08.51-.63.58-1.12Z" style="fill:url(#linear-gradient-60)"/><polygon points="66.28 51.23 69.5 49.32 72.72 51.23 71.89 47.57 74.7 45.1 70.98 44.75 69.49 41.32 68.01 44.75 64.28 45.1 67.1 47.58 66.28 51.23" style="fill:url(#linear-gradient-61)"/><polygon points="78.94 52.29 82.85 49.97 86.76 52.28 85.76 47.85 89.17 44.85 84.65 44.43 82.85 40.26 81.05 44.43 76.52 44.85 79.94 47.86 78.94 52.29" style="fill:url(#linear-gradient-62)"/><polygon points="92.99 51.23 96.21 49.32 99.42 51.23 98.61 47.57 101.41 45.1 97.69 44.75 96.2 41.32 94.72 44.75 91 45.1 93.81 47.58 92.99 51.23" style="fill:url(#linear-gradient-63)"/><polygon points="66.28 108.77 69.5 106.86 72.72 108.77 71.89 105.12 74.7 102.64 70.98 102.3 69.49 98.86 68.01 102.3 64.28 102.65 67.1 105.12 66.28 108.77" style="fill:url(#linear-gradient-64)"/><polygon points="78.94 109.83 82.85 107.51 86.76 109.83 85.76 105.4 89.17 102.39 84.65 101.97 82.85 97.8 81.05 101.97 76.52 102.4 79.94 105.4 78.94 109.83" style="fill:url(#linear-gradient-65)"/><polygon points="92.99 108.77 96.21 106.86 99.42 108.77 98.61 105.12 101.41 102.64 97.69 102.3 96.2 98.86 94.72 102.3 91 102.65 93.81 105.12 92.99 108.77" style="fill:url(#linear-gradient-66)"/><path d="M64.3,76.36c0,.07,0,.12.13.12s.13-.15.13-.27v-.12a1.05,1.05,0,0,0-.3-.1C64.28,76.12,64.29,76.25,64.3,76.36Zm.09-1.18.24,0c.05-.61.1-.84.1-.92s0-.11-.1-.11-.13.07-.23.19a1,1,0,0,1-.68.21c-.23,0-1.1,0-1.71,0v.51c0,.1,0,.16.1.16C62.42,75.21,64.06,75.21,64.39,75.18Zm.11-3.46c0,.13,0,.2.13.2s.13-.08.14-.15a1.21,1.21,0,0,0,0-.23,1.48,1.48,0,0,0-.32-.11A2,2,0,0,1,64.5,71.72ZM71.64,103l2.44.23.62-.55-3.33-.31ZM65.08,80.39l0-.08a11.38,11.38,0,0,0,.19-1.58c0-.14,0-.26-.12-.26s-.12.06-.15.22c-.1.58-.27.88-.64,1a3.64,3.64,0,0,1-1.34.17,5,5,0,0,1-1-.08c.11.6.47.75,1.66.75a3.56,3.56,0,0,0,1.33-.17Zm13.24-.48c.23.42.37.71.5.71s.09,0,.14-.09c-.36-.7-1.44-2.79-1.61-3.18s-1-2-1.47-3h-.06l-.06.47c.42.85.84,1.7.93,1.9C76.86,77.08,78,79.26,78.32,79.91Zm8.47.6c0-.09-.1-.1-.23-.1a3.2,3.2,0,0,1-.73-.11,1.2,1.2,0,0,0,.17.36h.42C86.62,80.66,86.79,80.62,86.79,80.51ZM83.12,70l-3.69,7.65.48,1,2.53-5.19h0l1.33-2.76-.09-.59c0-.3-.13-.44-.25-.44S83.24,69.8,83.12,70Zm-3.2-22.11-1,4.37.94-.56.71-3.21Zm-12.84-.28-.8,3.59.94-.56.54-2.43Zm18.24,55,3.23.3.62-.55L85,102ZM75.39,80.38l-.35,0v.17a.36.36,0,0,0,0,.11h.21c.21,0,.34,0,.34-.15S75.51,80.38,75.39,80.38Zm7.78-6.23h-.06l-.4.83.64,4.69c.06.4,0,.58-.07.61s-.16.09-.16.15.09.13.42.16l.5,0a1.62,1.62,0,0,0,0-.29ZM85.32,45.1l3.23.3.62-.55L85,44.46Zm28.45,25.76h-.08a.68.68,0,0,1,0,.15c0,.45,0,.85,0,3v1.78c0,1.46,0,2.74-.83,3.52a2.77,2.77,0,0,1-2,.77,2.63,2.63,0,0,1-1.61-.48,2.25,2.25,0,0,0,.5.56,2.62,2.62,0,0,0,1.78.59,4,4,0,0,0,2-.94,3.22,3.22,0,0,0,.32-.32,6.5,6.5,0,0,0,.47-3V74.68c0-2.16,0-2.56,0-3S114.23,71,113.77,70.86Zm20.13-.73c-.05-.3-.13-.44-.26-.44s-.2.11-.31.34l-3.7,7.65.48,1,2.54-5.19h0L134,70.72Zm2.87,10.28a3.35,3.35,0,0,1-.74-.11,1.5,1.5,0,0,0,.17.36h.43c.19,0,.37,0,.37-.15S136.9,80.41,136.77,80.41Zm-38.42-35,2.44.23.62-.55-3.33-.31ZM81.71,45.1l1.62-3.74-.48-1.1-1.8,4.17-4.53.42.75.66ZM115.9,69.89c-.56,0-1.45,0-1.62,0,0,0-.91,0-1.64,0-.2,0-.3,0-.3.13s.09.13.25.13a2.71,2.71,0,0,1,.51,0,.65.65,0,0,1,.52.37l1.33,0h.12a.53.53,0,0,1,.46-.41,2,2,0,0,1,.41,0c.17,0,.26,0,.26-.13S116.1,69.89,115.9,69.89ZM97.71,70c0-.08-.11-.11-.29-.11-.54,0-1.38,0-1.74,0s-1.3,0-1.85,0c-.22,0-.34,0-.34.11s.09.15.23.15a2.1,2.1,0,0,1,.51,0,.56.56,0,0,1,.4.36c.54,0,1.34,0,1.72,0h.25a.55.55,0,0,1,.46-.41,2.29,2.29,0,0,1,.43,0C97.63,70.15,97.71,70.12,97.71,70Zm-3,9.61c0,.41-.12.66-.41.71a2.23,2.23,0,0,1-.51.06c-.17,0-.23,0-.23.11s.1.14.29.14l1.47,0a1.4,1.4,0,0,0,.06-.32c.07-.6.07-1.72.07-3.1v-2.5c0-2.16,0-2.56,0-3s-.17-.73-.48-.8a1.36,1.36,0,0,0-.2,0,.89.89,0,0,0,0,.15c0,.45,0,.85,0,3v2.5A30.91,30.91,0,0,1,94.67,79.61Zm.72-34.19,1.29-3-.48-1.1-1.48,3.43L91,45.1l.74.66Zm2.47,35a4.44,4.44,0,0,1-.62,0,1.2,1.2,0,0,0,.07.3h.5c.16,0,.27,0,.27-.14S98,80.38,97.86,80.38ZM98.35,103l2.44.23.62-.55-3.33-.31ZM93.93,50.67l.54-2.43-.68-.6L93,51.23Zm39.44,23.48h-.06l-.4.83.65,4.69c.05.4,0,.58-.07.61s-.16.09-.16.15.08.13.41.16l.51,0a1.78,1.78,0,0,0,0-.29ZM66.28,108.77l.94-.56.54-2.42-.68-.6ZM81.05,102l-4.53.43.75.66,4.44-.42,1.62-3.73-.48-1.11Zm13.67.33-3.72.35.74.65,3.65-.34,1.29-3-.48-1.11ZM79,109.83l.94-.56.71-3.21-.68-.6ZM68,102.3l-3.73.35.75.65,3.65-.34L70,100l-.48-1.11ZM59.58,70.86h-.07a.89.89,0,0,0,0,.15c0,.45,0,.85,0,3v2.5a30.09,30.09,0,0,1-.08,3c0,.41-.12.73-.41.78a2.23,2.23,0,0,1-.51.06c-.17,0-.23,0-.23.11s.1.14.29.14l1,0,.47,0a2,2,0,0,0,.08-.38c.07-.6.07-1.72.07-3v-2.5c0-2.16,0-2.56,0-3S60.05,71,59.58,70.86Zm66.16-.42-.16-.31c-.18-.37-.27-.44-.38-.44s-.2.13-.24.37l-1.41,9.15c-.07.49-.18,1-.58,1.12a1.59,1.59,0,0,1-.43,0c-.14,0-.22,0-.22.1s.11.15.25.15c.46,0,1.14,0,1.41,0h.07a3.2,3.2,0,0,0,.17-.71l1.41-9.15A.57.57,0,0,1,125.74,70.44Zm-.14,9.94-.35,0c0,.05,0,.11,0,.17a.36.36,0,0,0,0,.11h.21c.21,0,.34,0,.34-.15S125.71,80.38,125.6,80.38ZM93,108.77l.94-.56.54-2.42-.68-.6ZM64.87,70.57c0-.43.09-.58.09-.67s0-.12-.09-.12a1.89,1.89,0,0,0-.23,0,5.23,5.23,0,0,1-.61.09H60.48l-.9,0H58.43c-.21,0-.31,0-.31.13s.09.13.24.13a2.92,2.92,0,0,1,.56,0,.62.62,0,0,1,.51.37h.82l.9,0H64.7Zm7.89,9.76a1.53,1.53,0,0,1-.42,0c-.14,0-.23,0-.23.1s.11.15.26.15c.45,0,1.13,0,1.4,0h.07a2.73,2.73,0,0,0,.17-.71l1.41-9.15a.57.57,0,0,1,.11-.29l-.15-.31c-.19-.37-.27-.44-.38-.44s-.2.13-.25.37l-1.4,9.15C73.28,79.7,73.16,80.25,72.76,80.33ZM109,69.89c-.51,0-1.41,0-1.75,0s-1.32,0-2.08,0c-.21,0-.31,0-.31.13s.09.13.24.13a2.86,2.86,0,0,1,.56,0,.65.65,0,0,1,.52.37l1.74,0h.29a.55.55,0,0,1,.46-.41,2,2,0,0,1,.41,0c.14,0,.23,0,.23-.13S109.16,69.89,109,69.89Zm-2,4.79c0-2.16,0-2.56,0-3s-.15-.71-.61-.81h-.08a.68.68,0,0,1,0,.15c0,.45,0,.85,0,3v2.08c0,2.06.54,3.11,1.26,3.76l.23.18a5.37,5.37,0,0,1-.82-3.28Zm19.16-.37H126l-.06.47c.42.85.84,1.7.93,1.9.17.4,1.29,2.58,1.64,3.23.22.42.36.71.49.71a.2.2,0,0,0,.15-.09c-.37-.7-1.44-2.79-1.61-3.18S126.58,75.38,126.08,74.31ZM32.37,71.53a3,3,0,0,1,.44,1.66,2.23,2.23,0,0,1-1.91,2.34c-.19,0-.3,0-.35.07v.16a.26.26,0,0,0,.13.06H31a3.6,3.6,0,0,0,2.15-.68,2.53,2.53,0,0,0,.35-1.29,2.76,2.76,0,0,0-.84-2.14A2.22,2.22,0,0,0,32.37,71.53Zm15.46,4.3-.16-.2q.38-.31.66-.6a3.37,3.37,0,0,0,.2-1.2,2.48,2.48,0,0,0-1.08-2.29,2.92,2.92,0,0,1,.42,1.62A2.52,2.52,0,0,1,47,75.29a1.45,1.45,0,0,1-1,.24l-.54,0v.3c0,.16,0,.22.13.26a3.67,3.67,0,0,0,1.08.14,1.47,1.47,0,0,0,1-.24S47.78,75.87,47.83,75.83Zm4.91,4.55a1.61,1.61,0,0,1-.4,0,2.49,2.49,0,0,1-1.2-.6c.1.1.19.22.28.31a3.73,3.73,0,0,0,.71.59h.51c.17,0,.27,0,.27-.14S52.85,80.38,52.74,80.38Zm-6.61,0-.56,0a1.23,1.23,0,0,0,.07.29H46c.18,0,.28,0,.28-.14S46.25,80.38,46.13,80.38ZM74.08,45.65l.62-.55-3.33-.31.27.63ZM68,44.75l-3.73.35.75.66,3.65-.34,1.29-3-.48-1.1ZM45.87,70.57h.76a4.73,4.73,0,0,1,2.5.55,2.41,2.41,0,0,0-.55-.61A4.52,4.52,0,0,0,46,69.89l-2,0c-.3,0-1.2,0-2,0-.21,0-.31,0-.31.13s.08.13.24.13a2.75,2.75,0,0,1,.55,0,.62.62,0,0,1,.52.37l1.62,0h.45a4.71,4.71,0,0,1,.61,0Zm-2.71.29h-.08a.68.68,0,0,1,0,.15c0,.45,0,.85,0,3v2.5c0,1.31,0,2.43-.07,3-.06.41-.12.73-.41.78a2.23,2.23,0,0,1-.51.06c-.17,0-.23,0-.23.11s.1.14.29.14l1.45,0a3.33,3.33,0,0,0,.08-.39c.07-.6.07-1.72.07-3v-2.5c0-2.16,0-2.56,0-3S43.63,71,43.16,70.86ZM47.08,77a.28.28,0,0,0-.24-.1c.28.4.64.93,1,1.4a9.51,9.51,0,0,0,1.57,1.82c-.27-.32-.56-.69-.9-1.16C47.92,78.16,47.27,77.2,47.08,77Zm-16-7.09c-.66,0-1.48,0-2.06,0-.4,0-1.3,0-2,0-.21,0-.31,0-.31.13s.08.13.24.13a2.75,2.75,0,0,1,.55,0,.62.62,0,0,1,.52.37l1.71,0H30s0,0,0,0a2.14,2.14,0,0,1,1.05,0h.74a4.14,4.14,0,0,1,2.27.52,2.1,2.1,0,0,0-.3-.38A3.49,3.49,0,0,0,31.12,69.89Zm.11,10.49c-.17,0-.4,0-.59,0a1.37,1.37,0,0,0,.07.29h.48c.15,0,.27,0,.27-.14S31.39,80.38,31.23,80.38Zm-3.07-9.52h-.07a.89.89,0,0,0,0,.15c0,.45,0,.85,0,3v2.5c0,1.31,0,2.43-.07,3,0,.41-.13.73-.41.78a2.23,2.23,0,0,1-.51.06c-.17,0-.23,0-.23.11s.1.14.29.14l1.45,0a3.33,3.33,0,0,0,.08-.39c.07-.6.07-1.72.07-3v-2.5c0-2.16,0-2.56,0-3S28.63,71,28.16,70.86Z" style="mix-blend-mode:screen;fill:url(#linear-gradient-67)"/><path d="M92.24,58c0,5.94-16.56,10.67-36.91,10.54s-36.82-5.05-36.79-11S35.11,46.87,55.46,47,92.28,52.05,92.24,58Z" style="mix-blend-mode:screen;fill:url(#radial-gradient-2)"/></g></g></g></svg>